<svg id="Layer_1" data-name="Layer 1" xmlns="http://www.w3.org/2000/svg" xmlns:xlink="http://www.w3.org/1999/xlink" viewBox="0 0 809.47 245.08"><defs><style>.cls-1{fill:url(#New_Gradient_Swatch_3);}.cls-2{fill:#13182b;}.cls-3{fill:#595a5c;}</style><linearGradient id="New_Gradient_Swatch_3" x1="75.85" y1="175.2" x2="237.06" y2="13.99" gradientUnits="userSpaceOnUse"><stop offset="0" stop-color="#1751a4"/><stop offset="0.52" stop-color="#307f75"/><stop offset="1" stop-color="#49ab48"/></linearGradient></defs><path class="cls-1" d="M223,107.5A80.32,80.32,0,0,0,241.12,69c0-.22-.33-.58-.59-.78s-.4-.18-.48,0c-12.76,34.73-33.69,52-63.12,64-1.21-4.83-2.26-9.71-3.07-14.63,11.3-3.1,22.3-7.61,31.22-14.12a84.67,84.67,0,0,0,23.67-26.68,110.48,110.48,0,0,0,11.93-30.89c.55-2.57.29-3.49-.58-4.16l-.4-.3c-.36-.27-.63,0-.73.49a61.23,61.23,0,0,1-2.43,7.76c-11.67,31.34-30.27,50.19-64,58a119.76,119.76,0,0,1-.4-16.61c23.69-5,43.73-21.47,54.64-42.93a138.26,138.26,0,0,0,11.07-31.53,2.52,2.52,0,0,0-1-2.78,1.65,1.65,0,0,0-.77-.31,2.52,2.52,0,0,0-1.8-.19,137.71,137.71,0,0,0-31.54,11.08C181.37,35.27,165,55.18,159.88,78.72a119.59,119.59,0,0,1-16.6-.43c7.82-33.47,26.65-52,57.87-63.6a63,63,0,0,1,7.77-2.44c.44-.1.75-.36.48-.73l-.3-.39c-.67-.87-1.59-1.14-4.16-.58a109.69,109.69,0,0,0-30.88,11.93,84.6,84.6,0,0,0-26.69,23.67c-6.44,8.81-10.92,19.67-14,30.83-4.91-.81-9.76-1.86-14.58-3.08,12-29.22,29.3-50,63.87-62.73.23-.08.19-.28,0-.48s-.56-.62-.78-.59a80.25,80.25,0,0,0-38.54,18.13C129.82,39.61,118.78,54,110.11,71.52c-4.3-1.27-8.58-2.65-12.82-4.11C84.47,63,51.48,47.86,38.74,36.93c-4-3.44-5.93-3.9-8.06-2.4a19.71,19.71,0,0,0-3.07,3.23A80.13,80.13,0,0,0,16.26,61.22c-.19.72,1,1.41,2.2.88,5.95-2.65,31.62,8.53,39.06,11.46,4.81,1.89,9.7,3.62,14.6,5.25,10.23,3.42,20.54,6.53,31,9q-.93,2.47-1.8,5c-1.76,5.16-3.24,10.4-4.47,15.64-24.67-3.65-45.64-10-59.26-15.71C28,88.81,22,87.84,17.86,90c-.69.37-1.41,1.57-1.07,3.45a64.38,64.38,0,0,0,5.72,17.32c2.29,4.63,3.57,3.13,5.76,2.62,3.08-.7,6.75.25,9.74.84,5.81,1.13,11.56,2.59,17.35,3.85a259.63,259.63,0,0,0,38.58,5.18c-1.09,7-1.81,13.81-2.25,20.33-1.66-.07-3.3-.15-4.9-.25-18.91-1.08-40.26-6.34-47.23-8.16-.69-.18-.65,1.8-.17,2.33,3.08,3.48,9.09,9.73,10.45,11.24A27.62,27.62,0,0,0,62.36,157c6.16,2,12.69,2.37,19.1,2.6,3,.11,6.28.16,9.68.15,0,3.53,0,6.9.15,10,.23,6.42.61,13,2.6,19.1a27.65,27.65,0,0,0,8.21,12.52c1.51,1.36,7.76,7.37,11.24,10.45.53.48,2.52.53,2.33-.17-1.82-7-7.08-28.32-8.16-47.22-.1-1.71-.19-3.46-.26-5.23,6.51-.42,13.35-1.13,20.32-2.21a259.44,259.44,0,0,0,5.21,38.86c1.25,5.79,2.71,11.54,3.84,17.36.59,3,1.55,6.65.84,9.74-.51,2.19-2,3.46,2.62,5.76a64.74,64.74,0,0,0,17.32,5.72c1.88.33,3.08-.38,3.45-1.08,2.19-4.17,1.22-10.15-2.73-19.7-5.71-13.67-12.1-34.73-15.75-59.51a165.28,165.28,0,0,0,16-4.56q2.34-.81,4.63-1.66c2.47,10.5,5.6,20.88,9,31.17,1.63,4.91,3.36,9.79,5.26,14.6,2.92,7.44,14.1,33.12,11.46,39.06-.54,1.2.15,2.39.88,2.2a79.69,79.69,0,0,0,23.45-11.35,19.77,19.77,0,0,0,3.23-3.06c1.5-2.14,1-4.05-2.4-8.06-10.93-12.75-26.08-45.74-30.48-58.56q-2.22-6.44-4.15-13C197.05,132.27,211.53,121.16,223,107.5ZM199.18,33.64c9-7,19.46-12,30.25-15.54l5.27-1.66q-.78,2.5-1.58,5c-3.57,10.79-8.51,21.26-15.54,30.25C206.28,66.15,190.7,74,173.8,77.13,177,60.35,184.82,44.88,199.18,33.64ZM157.9,93c-.36,5-.43,10-.31,15.07,0,.68,0,1.35.08,2-5.93.64-12,1-18.08,1.19.16-6.11.56-12.17,1.22-18.1l2.34.09C148.06,93.41,153,93.35,157.9,93Zm-44.62-3c5.5,1,11,1.89,16.62,2.46-1.14,6.57-1.88,13-2.32,18.82-5.31-.15-10.61-.46-15.82-1-.87-.08-1.72-.18-2.57-.27A163.71,163.71,0,0,1,113.28,90Zm-6.36,54c0-6.51.25-13.26.77-20.08,6.45.16,12.89.14,19.31,0-.14,6.43-.16,12.88,0,19.33C120.17,143.73,113.43,144,106.92,144Zm33.9-2.21c-.08-.76-.16-1.51-.24-2.28-.51-5.32-.82-10.72-1-16.14,5.85-.43,12.23-1.16,18.8-2.28.57,5.59,1.41,11.14,2.45,16.65A165.74,165.74,0,0,1,140.82,141.75Z"/><polygon class="cls-2" points="302.74 97.06 307.8 91.53 325.85 112.54 332.84 112.54 311.27 87.75 331.23 65.96 324.81 65.96 302.74 90.48 302.74 65.96 297.71 65.96 297.71 112.54 302.74 112.54 302.74 97.06"/><polygon class="cls-2" points="373 107.79 348.63 107.79 348.63 91.66 370.07 91.66 370.07 86.77 348.63 86.77 348.63 70.71 373 70.71 373 65.96 343.6 65.96 343.6 112.54 373 112.54 373 107.79"/><polygon class="cls-2" points="392.28 74.25 408.2 97.95 425.17 74.13 425.17 112.54 430.2 112.54 430.2 65.96 424.76 65.96 408.52 90.23 392.7 65.96 387.25 65.96 387.25 112.54 392.28 112.54 392.28 74.25"/><polygon class="cls-2" points="474.56 107.79 450.18 107.79 450.18 91.66 471.62 91.66 471.62 86.77 450.18 86.77 450.18 70.71 474.56 70.71 474.56 65.96 445.15 65.96 445.15 112.54 474.56 112.54 474.56 107.79"/><polygon class="cls-2" points="493.84 73.26 521.7 112.54 527.36 112.54 527.36 65.96 522.33 65.96 522.33 105.18 494.54 65.96 488.81 65.96 488.81 112.54 493.84 112.54 493.84 73.26"/><polygon class="cls-2" points="559.28 112.54 559.28 70.71 575.69 70.71 575.69 65.96 537.77 65.96 537.77 70.71 554.25 70.71 554.25 112.54 559.28 112.54"/><polygon class="cls-2" points="615.51 107.79 591.13 107.79 591.13 91.66 612.57 91.66 612.57 86.77 591.13 86.77 591.13 70.71 615.51 70.71 615.51 65.96 586.11 65.96 586.11 112.54 615.51 112.54 615.51 107.79"/><path class="cls-2" d="M634.79,93.76h11.87l12.15,18.78h5.94L652.07,93.2a12.32,12.32,0,0,0,4.23-1.54,12.63,12.63,0,0,0,4.68-5,15.11,15.11,0,0,0,1.67-7.19q0-6.7-3.45-10.13T648.89,66H629.76v46.58h5Zm0-23.05h13.55q5.37,0,7.33,2.48a10.5,10.5,0,0,1,2,6.67q0,4.47-2.62,6.81c-1.74,1.56-4.55,2.34-8.41,2.34h-11.8Z"/><rect class="cls-2" x="676.91" y="65.96" width="5.03" height="46.58"/><path class="cls-2" d="M703.39,98h20.1l5.59,14.52h5.38L716,66h-5l-18.57,46.58h5.44Zm10.05-26.09,8.19,21.27H705.25Z"/><polygon class="cls-2" points="749.9 73.26 777.76 112.54 783.42 112.54 783.42 65.96 778.39 65.96 778.39 105.18 750.6 65.96 744.87 65.96 744.87 112.54 749.9 112.54 749.9 73.26"/><path class="cls-2" d="M326.24,127.61q-4.15-3.69-12-3.7H297.71v46.58h5V152.68h11.52q7.82,0,12-3.7t4.15-10.68Q330.39,131.31,326.24,127.61Zm-1.26,14a7.34,7.34,0,0,1-1.57,3.11,8,8,0,0,1-3.53,2.27,19,19,0,0,1-6.25.84H302.74V128.73h10.89a19,19,0,0,1,6.25.84,8,8,0,0,1,3.53,2.27A7.34,7.34,0,0,1,325,135a14.58,14.58,0,0,1,0,6.7Z"/><polygon class="cls-2" points="369.22 165.75 344.85 165.75 344.85 149.61 366.29 149.61 366.29 144.72 344.85 144.72 344.85 128.66 369.22 128.66 369.22 123.91 339.82 123.91 339.82 170.49 369.22 170.49 369.22 165.75"/><path class="cls-2" d="M406.23,149.61a12.49,12.49,0,0,0,4.68-5,15,15,0,0,0,1.68-7.19q0-6.71-3.46-10.13t-10.3-3.42H379.7v46.58h5V151.71h11.86l12.16,18.78h5.94L402,151.15A12.19,12.19,0,0,0,406.23,149.61Zm-21.5-21h13.54c3.59,0,6,.83,7.34,2.48a10.5,10.5,0,0,1,1.95,6.67q0,4.47-2.62,6.81c-1.74,1.56-4.55,2.34-8.41,2.34h-11.8Z"/><path class="cls-2" d="M423.07,170.49h14.59q10.9,0,16.38-5.86t5.48-17.46q0-11.59-5.48-17.43t-16.38-5.83H423.07Zm5-41.9h9.22q8.94,0,13,4.47t4.05,14.11q0,9.63-4.05,14.11t-13,4.46h-9.22Z"/><path class="cls-2" d="M469.86,170.49,475.45,156h20.1l5.59,14.52h5.38L488,123.91h-5l-18.58,46.58Zm15.65-40.61,8.19,21.27H477.31Z"/><path class="cls-2" d="M531.94,151.43h11.24V164.7A34,34,0,0,1,538,166a34.86,34.86,0,0,1-5.45.42,20.11,20.11,0,0,1-9.67-2.06A12.48,12.48,0,0,1,517.2,158a27.76,27.76,0,0,1-1.81-10.82,27.54,27.54,0,0,1,1.81-10.79,12.54,12.54,0,0,1,5.63-6.29A20.23,20.23,0,0,1,532.5,128a24.52,24.52,0,0,1,7.26,1.09,59.26,59.26,0,0,1,6.85,2.54v-5.23a32,32,0,0,0-7.13-2.38,37.17,37.17,0,0,0-7.54-.77A24.46,24.46,0,0,0,520,125.94a16.67,16.67,0,0,0-7.23,8,32.22,32.22,0,0,0-2.41,13.27,32.44,32.44,0,0,0,2.41,13.3,16.84,16.84,0,0,0,7.23,8,24.13,24.13,0,0,0,11.94,2.69,38.5,38.5,0,0,0,8.38-.9,38,38,0,0,0,7.89-2.73v-21H531.94Z"/><path class="cls-2" d="M565.89,156H586l5.59,14.52H597l-18.51-46.58h-5l-18.58,46.58h5.45ZM576,129.88l8.19,21.27H567.75Z"/><polygon class="cls-2" points="609.32 123.91 603.6 123.91 603.6 170.49 608.62 170.49 608.62 131.21 636.49 170.49 642.14 170.49 642.14 123.91 637.12 123.91 637.12 163.13 609.32 123.91"/><path class="cls-2" d="M673.15,151.43H684.4V164.7a34.4,34.4,0,0,1-5.24,1.25,34.86,34.86,0,0,1-5.45.42,20.11,20.11,0,0,1-9.67-2.06,12.53,12.53,0,0,1-5.63-6.32,27.76,27.76,0,0,1-1.81-10.82,27.54,27.54,0,0,1,1.81-10.79,12.58,12.58,0,0,1,5.63-6.29,20.23,20.23,0,0,1,9.67-2.06,24.52,24.52,0,0,1,7.26,1.09,59.26,59.26,0,0,1,6.85,2.54v-5.23a32,32,0,0,0-7.13-2.38,37.1,37.1,0,0,0-7.54-.77,24.46,24.46,0,0,0-11.94,2.66,16.67,16.67,0,0,0-7.23,8,32.22,32.22,0,0,0-2.41,13.27,32.44,32.44,0,0,0,2.41,13.3,16.84,16.84,0,0,0,7.23,8,24.13,24.13,0,0,0,11.94,2.69,38.5,38.5,0,0,0,8.38-.9,38,38,0,0,0,7.89-2.73v-21H673.15Z"/><path class="cls-2" d="M714.64,123.91l-18.58,46.58h5.45L707.1,156h20.1l5.59,14.52h5.38l-18.51-46.58ZM709,151.15l8.2-21.27,8.19,21.27Z"/><polygon class="cls-2" points="749.83 131.21 777.7 170.49 783.35 170.49 783.35 123.91 778.33 123.91 778.33 163.13 750.53 123.91 744.8 123.91 744.8 170.49 749.83 170.49 749.83 131.21"/><path class="cls-3" d="M315.84,202.83a7.69,7.69,0,0,0,2.59-3.06,9.36,9.36,0,0,0,.89-4.07q0-4.24-2.35-6.39t-6.77-2.14H297.63v28.3h4.67V204.78h6l6.62,10.69h5.81L313.14,204A7.51,7.51,0,0,0,315.84,202.83ZM302.3,191.11h7.35a4.65,4.65,0,0,1,3.71,1.28,5.41,5.41,0,0,1,1.08,3.6,4.76,4.76,0,0,1-1.38,3.74,6.12,6.12,0,0,1-4.18,1.23H302.3Z"/><polygon class="cls-3" points="329.25 215.47 347.8 215.47 347.8 211.53 333.92 211.53 333.92 203.29 346.02 203.29 346.02 199.31 333.96 199.31 333.96 191.11 347.8 191.11 347.8 187.17 329.25 187.17 329.25 215.47"/><path class="cls-3" d="M376.22,189.42q-2.66-2.25-7.5-2.25h-11.2v28.3h4.67V205.33h6.53q4.84,0,7.5-2.37a8.75,8.75,0,0,0,2.65-6.84C378.87,193.15,378,190.92,376.22,189.42Zm-2.47,8.74a3.92,3.92,0,0,1-.87,1.63,4,4,0,0,1-1.78,1.15,9.06,9.06,0,0,1-3,.4h-5.94V191.11h5.94a8.72,8.72,0,0,1,3,.43,4.14,4.14,0,0,1,1.78,1.17,3.89,3.89,0,0,1,.87,1.67,7.63,7.63,0,0,1,.24,1.91A7.21,7.21,0,0,1,373.75,198.16Z"/><path class="cls-3" d="M406.62,204.31c0,2.66-.6,4.64-1.8,5.92a6.76,6.76,0,0,1-5.2,1.93,6.66,6.66,0,0,1-5.22-1.93c-1.16-1.28-1.74-3.26-1.74-5.92V187.17h-4.8v17.19q0,5.8,3.06,8.76t8.83,2.95a13.16,13.16,0,0,0,6.07-1.3,9,9,0,0,0,3.92-3.92,13.85,13.85,0,0,0,1.38-6.49V187.17h-4.5Z"/><path class="cls-3" d="M439.68,201.11a9.39,9.39,0,0,0-1.68-.77l1-.7a6.31,6.31,0,0,0,1.72-1.8,5.49,5.49,0,0,0,.72-3,7.89,7.89,0,0,0-1-4.1,6.59,6.59,0,0,0-3.16-2.65,14.17,14.17,0,0,0-5.58-.93H421.22v28.3h11.46a16,16,0,0,0,5.41-.84,7.51,7.51,0,0,0,3.67-2.68,7.82,7.82,0,0,0,1.32-4.71,6.91,6.91,0,0,0-.95-3.75A7.06,7.06,0,0,0,439.68,201.11Zm-13.79-10h6a6.4,6.4,0,0,1,3.54.87,4.57,4.57,0,0,1,.66,5.63,3.35,3.35,0,0,1-1.7,1.08,8.27,8.27,0,0,1-2.12.27h-6.37Zm11.61,18.74a3.87,3.87,0,0,1-2.08,1.36,10.32,10.32,0,0,1-2.78.36h-6.71v-8.83h6.58a14.38,14.38,0,0,1,2.06.15,5.55,5.55,0,0,1,1.87.6,3.38,3.38,0,0,1,1.34,1.29,5.33,5.33,0,0,1-.28,5.07Z"/><polygon class="cls-3" points="456.75 187.17 452.04 187.17 452.04 215.47 470.24 215.47 470.24 211.49 456.75 211.49 456.75 187.17"/><rect class="cls-3" x="478.18" y="187.17" width="4.71" height="28.31"/><polygon class="cls-3" points="515.02 187.17 509.08 187.17 497.7 200.9 497.7 187.17 492.99 187.17 492.99 215.47 497.7 215.47 497.7 206.27 500.3 203.41 509.8 215.47 515.91 215.47 503.52 199.85 515.02 187.17"/><rect class="cls-3" x="539.43" y="187.17" width="4.71" height="28.31"/><polygon class="cls-3" points="573.77 207.97 558.74 187.17 554.25 187.17 554.25 215.47 558.7 215.47 558.7 194.43 574.02 215.47 578.22 215.47 578.22 187.17 573.77 187.17 573.77 207.97"/><path class="cls-3" d="M598.26,187.17h-9.93v28.3h9.93q6.87,0,10.23-3.58t3.35-10.59q0-7-3.35-10.57T598.26,187.17Zm6.53,21.92c-1.5,1.62-3.83,2.44-7,2.44H593V191.07h4.8q4.76,0,7,2.46T607,201.3Q607,206.64,604.79,209.09Z"/><path class="cls-3" d="M640.06,188.31a14.73,14.73,0,0,0-7.17-1.61q-6.42,0-9.78,3.69t-3.38,11a19,19,0,0,0,1.53,8.15,10.45,10.45,0,0,0,4.48,4.84,14.76,14.76,0,0,0,7.15,1.61q6.45,0,9.82-3.69t3.38-10.91a19,19,0,0,0-1.55-8.17A10.6,10.6,0,0,0,640.06,188.31Zm.28,19.1a6.55,6.55,0,0,1-2.76,3.42,10.68,10.68,0,0,1-9.36,0,6.49,6.49,0,0,1-2.78-3.42,20.63,20.63,0,0,1,0-12.12,6.58,6.58,0,0,1,2.78-3.41,9,9,0,0,1,4.67-1.11,9.09,9.09,0,0,1,4.69,1.09,6.56,6.56,0,0,1,2.76,3.39,16.72,16.72,0,0,1,.91,6.05A17,17,0,0,1,640.34,207.41Z"/><polygon class="cls-3" points="674.57 207.97 659.54 187.17 655.04 187.17 655.04 215.47 659.5 215.47 659.5 194.43 674.82 215.47 679.02 215.47 679.02 187.17 674.57 187.17 674.57 207.97"/><polygon class="cls-3" points="689.12 215.47 707.67 215.47 707.67 211.53 693.79 211.53 693.79 203.29 705.89 203.29 705.89 199.31 693.83 199.31 693.83 191.11 707.67 191.11 707.67 187.17 689.12 187.17 689.12 215.47"/><path class="cls-3" d="M733.22,201.83a11.69,11.69,0,0,0-2.63-1.55c-1-.42-2-.81-3.06-1.14s-2.23-.75-3.14-1.13a5.5,5.5,0,0,1-2.1-1.44,3.55,3.55,0,0,1-.74-2.36,3.38,3.38,0,0,1,.59-2,3.89,3.89,0,0,1,1.74-1.32,7.38,7.38,0,0,1,2.93-.42,11.15,11.15,0,0,1,2.84.42,12.18,12.18,0,0,1,2.36,1c.72.4,1.44.82,2.14,1.27v-4.58c-.87-.43-1.69-.79-2.44-1.08a11.52,11.52,0,0,0-2.37-.66,18.13,18.13,0,0,0-3-.21,12.46,12.46,0,0,0-4.44.7,8,8,0,0,0-3,1.86,7.78,7.78,0,0,0-1.68,2.61,8.18,8.18,0,0,0-.55,2.85,7.91,7.91,0,0,0,.64,3.35,6.16,6.16,0,0,0,1.7,2.23,9.94,9.94,0,0,0,2.37,1.44c.88.38,1.77.74,2.68,1.09,1.19.42,2.3.84,3.35,1.27a7.84,7.84,0,0,1,2.53,1.55,3.19,3.19,0,0,1,1,2.4,3.69,3.69,0,0,1-1.29,3,6.06,6.06,0,0,1-3.93,1.08,14.74,14.74,0,0,1-5.07-.85,14,14,0,0,1-4-2.16v4.66a26.57,26.57,0,0,0,2.71,1.24,14.43,14.43,0,0,0,2.93.74,27.35,27.35,0,0,0,3.74.23,11.26,11.26,0,0,0,5.58-1.21,7.59,7.59,0,0,0,3.14-3.14,9,9,0,0,0,1-4.14,7.35,7.35,0,0,0-.7-3.35A7.08,7.08,0,0,0,733.22,201.83Z"/><rect class="cls-3" x="744.72" y="187.17" width="4.71" height="28.31"/><path class="cls-3" d="M778.72,215.47h4.92l-10.74-28.3h-5l-11,28.3h4.67l2.78-7.68h11.57Zm-13-11.5,4.39-12.14L774.53,204Z"/></svg>